<svg xmlns="http://www.w3.org/2000/svg" xmlns:xlink="http://www.w3.org/1999/xlink" viewBox="0 0 273.93 242.63"><defs><style>.cls-1{fill:none;}.cls-2{isolation:isolate;}.cls-3{clip-path:url(#clip-path);}.cls-4{fill:#640056;}.cls-5{fill:#670058;}.cls-6{fill:#69005b;}.cls-7{fill:#620054;}.cls-8{clip-path:url(#clip-path-2);}.cls-9{fill:#961c83;}.cls-10{clip-path:url(#clip-path-3);}.cls-11{clip-path:url(#clip-path-4);}.cls-12{clip-path:url(#clip-path-5);}.cls-13{clip-path:url(#clip-path-6);}</style><clipPath id="clip-path"><path class="cls-1" d="M12.56,33.4l-10.68,0C2.08,14.74,17-.2,35.22,0L45.89,0C27.69-.19,12.76,14.76,12.56,33.4Z"/></clipPath><clipPath id="clip-path-2"><path class="cls-1" d="M43.29,242.62H32.61C14.4,242.41-.2,227.13,0,208.49l10.68,0C10.48,227.14,25.08,242.42,43.29,242.62Z"/></clipPath><clipPath id="clip-path-3"><path class="cls-1" d="M110,33.39H99.27C99.47,14.74,114.4-.2,132.6,0h10.68C125.08-.19,110.15,14.76,110,33.39Z"/></clipPath><clipPath id="clip-path-4"><path class="cls-1" d="M141.32,182.36H130.65c-18.21-.2-32.81-15.48-32.61-34.12h10.68C108.52,166.88,123.12,182.16,141.32,182.36Z"/></clipPath><clipPath id="clip-path-5"><path class="cls-1" d="M208,33.4l-10.68,0C197.51,14.74,212.43-.2,230.64,0l10.68,0C223.11-.19,208.19,14.76,208,33.4Z"/></clipPath><clipPath id="clip-path-6"><path class="cls-1" d="M238.71,242.62H228c-18.2-.2-32.8-15.48-32.6-34.12l10.68,0C205.91,227.14,220.51,242.42,238.71,242.62Z"/></clipPath></defs><title>Asset 1</title><g id="Layer_2" data-name="Layer 2"><g id="Layer_1-2" data-name="Layer 1"><g class="cls-2"><g class="cls-2"><g class="cls-3"><g class="cls-2"><path class="cls-4" d="M12.56,33.4l-10.68,0A33.88,33.88,0,0,1,19.41,3.92l10.68,0A33.85,33.85,0,0,0,12.56,33.4"/><path class="cls-5" d="M30.09,3.94l-10.68,0A32.37,32.37,0,0,1,27.84.77H38.52a32,32,0,0,0-8.43,3.16"/><path class="cls-6" d="M38.52.78H27.84A32.66,32.66,0,0,1,35.22,0L45.89,0a32.07,32.07,0,0,0-7.37.76"/></g></g></g><polygon class="cls-7" points="10.68 208.51 0 208.49 1.88 33.38 12.56 33.4 10.68 208.51"/><g class="cls-2"><g class="cls-8"><g class="cls-2"><path class="cls-4" d="M43.29,242.62H32.61C14.4,242.41-.2,227.13,0,208.49l10.68,0c-.2,18.63,14.4,33.91,32.61,34.11"/></g></g></g><path class="cls-9" d="M45.89,0C64.1.22,78.7,15.5,78.5,34.13L76.62,209.25c-.2,18.63-15.12,33.58-33.33,33.37s-32.81-15.48-32.61-34.11L12.56,33.4C12.76,14.76,27.69-.19,45.89,0Z"/></g><g class="cls-2"><g class="cls-2"><g class="cls-10"><g class="cls-2"><path class="cls-4" d="M110,33.39H99.27A33.88,33.88,0,0,1,116.8,3.92l10.68,0A33.85,33.85,0,0,0,110,33.39"/><path class="cls-5" d="M127.48,3.94l-10.68,0A32.76,32.76,0,0,1,125.23.76l10.68,0a32,32,0,0,0-8.43,3.16"/><path class="cls-6" d="M135.91.78l-10.68,0A32.63,32.63,0,0,1,132.6,0h10.68a32.58,32.58,0,0,0-7.37.77"/></g></g></g><polygon class="cls-7" points="108.72 148.25 98.04 148.23 99.27 33.38 109.95 33.39 108.72 148.25"/><g class="cls-2"><g class="cls-11"><g class="cls-2"><path class="cls-4" d="M141.32,182.36H130.65c-18.21-.2-32.81-15.48-32.61-34.12h10.68c-.2,18.64,14.4,33.92,32.6,34.12"/></g></g></g><path class="cls-9" d="M143.28,0c18.21.21,32.81,15.48,32.61,34.12L174.66,149c-.2,18.64-15.13,33.59-33.34,33.38s-32.8-15.48-32.6-34.12L110,33.39C110.15,14.76,125.08-.19,143.28,0Z"/></g><g class="cls-2"><g class="cls-2"><g class="cls-12"><g class="cls-2"><path class="cls-4" d="M208,33.4l-10.68,0A33.86,33.86,0,0,1,214.84,3.92l10.68,0A33.83,33.83,0,0,0,208,33.4"/><path class="cls-5" d="M225.52,3.94l-10.68,0A32.37,32.37,0,0,1,223.27.77H234a32,32,0,0,0-8.43,3.16"/><path class="cls-6" d="M234,.78H223.27A32.58,32.58,0,0,1,230.64,0l10.68,0A32,32,0,0,0,234,.78"/></g></g></g><polygon class="cls-7" points="206.11 208.51 195.43 208.49 197.31 33.38 207.99 33.4 206.11 208.51"/><g class="cls-2"><g class="cls-13"><g class="cls-2"><path class="cls-4" d="M238.71,242.62H228c-18.2-.2-32.8-15.48-32.6-34.12l10.68,0c-.2,18.63,14.4,33.91,32.6,34.11"/></g></g></g><path class="cls-9" d="M241.32,0c18.21.2,32.81,15.48,32.61,34.11l-1.88,175.12c-.2,18.63-15.13,33.58-33.34,33.37s-32.8-15.48-32.6-34.11L208,33.4C208.19,14.76,223.11-.19,241.32,0Z"/></g></g></g></svg>
